<mxfile host="app.diagrams.net" agent="Mozilla/5.0 (Windows NT 10.0; Win64; x64) AppleWebKit/537.36 (KHTML, like Gecko) Chrome/131.0.0.0 Safari/537.36" version="26.0.9">
  <diagram name="Page-1" id="taAUuUG_-QPMQwi7VbYJ">
    <mxGraphModel dx="1050" dy="557" grid="1" gridSize="10" guides="1" tooltips="1" connect="1" arrows="1" fold="1" page="1" pageScale="1" pageWidth="827" pageHeight="1169" math="0" shadow="0">
      <root>
        <mxCell id="0" />
        <mxCell id="1" parent="0" />
        <mxCell id="r-qvrWHiRKZXDaPY58lE-1" value="&lt;span style=&quot;color: rgb(0, 0, 0); font-family: Helvetica; font-size: 12px; font-style: normal; font-variant-ligatures: normal; font-variant-caps: normal; font-weight: 400; letter-spacing: normal; orphans: 2; text-align: center; text-indent: 0px; text-transform: none; widows: 2; word-spacing: 0px; -webkit-text-stroke-width: 0px; white-space: normal; background-color: rgb(255, 255, 255); text-decoration-thickness: initial; text-decoration-style: initial; text-decoration-color: initial; float: none; display: inline !important;&quot;&gt;admin จัดการข้อมูลการจอง&lt;/span&gt;" style="text;whiteSpace=wrap;html=1;" vertex="1" parent="1">
          <mxGeometry x="203" y="60" width="190" height="40" as="geometry" />
        </mxCell>
        <mxCell id="r-qvrWHiRKZXDaPY58lE-4" value="" style="edgeStyle=orthogonalEdgeStyle;rounded=0;orthogonalLoop=1;jettySize=auto;html=1;" edge="1" parent="1" source="r-qvrWHiRKZXDaPY58lE-2" target="r-qvrWHiRKZXDaPY58lE-3">
          <mxGeometry relative="1" as="geometry" />
        </mxCell>
        <mxCell id="r-qvrWHiRKZXDaPY58lE-2" value="เริ่มต้น" style="rounded=1;whiteSpace=wrap;html=1;arcSize=50;" vertex="1" parent="1">
          <mxGeometry x="369" y="90" width="88" height="42" as="geometry" />
        </mxCell>
        <mxCell id="r-qvrWHiRKZXDaPY58lE-7" value="" style="edgeStyle=orthogonalEdgeStyle;rounded=0;orthogonalLoop=1;jettySize=auto;html=1;" edge="1" parent="1" source="r-qvrWHiRKZXDaPY58lE-3" target="r-qvrWHiRKZXDaPY58lE-5">
          <mxGeometry relative="1" as="geometry" />
        </mxCell>
        <mxCell id="r-qvrWHiRKZXDaPY58lE-3" value="&lt;span style=&quot;background-color: rgb(255, 255, 255);&quot;&gt;จัดการข้อมูลการจอง&lt;/span&gt;" style="rhombus;whiteSpace=wrap;html=1;" vertex="1" parent="1">
          <mxGeometry x="352" y="180" width="122" height="70" as="geometry" />
        </mxCell>
        <mxCell id="r-qvrWHiRKZXDaPY58lE-9" value="" style="edgeStyle=orthogonalEdgeStyle;rounded=0;orthogonalLoop=1;jettySize=auto;html=1;" edge="1" parent="1" source="r-qvrWHiRKZXDaPY58lE-5">
          <mxGeometry relative="1" as="geometry">
            <mxPoint x="412.5" y="390" as="targetPoint" />
          </mxGeometry>
        </mxCell>
        <mxCell id="r-qvrWHiRKZXDaPY58lE-5" value="ตรวจสอบรายการการจอง" style="rounded=0;whiteSpace=wrap;html=1;" vertex="1" parent="1">
          <mxGeometry x="348" y="300" width="130" height="40" as="geometry" />
        </mxCell>
        <mxCell id="r-qvrWHiRKZXDaPY58lE-14" value="" style="edgeStyle=orthogonalEdgeStyle;rounded=0;orthogonalLoop=1;jettySize=auto;html=1;" edge="1" parent="1" source="r-qvrWHiRKZXDaPY58lE-12" target="r-qvrWHiRKZXDaPY58lE-13">
          <mxGeometry relative="1" as="geometry" />
        </mxCell>
        <mxCell id="r-qvrWHiRKZXDaPY58lE-12" value="ยืนยันรายการการจอง" style="rhombus;whiteSpace=wrap;html=1;" vertex="1" parent="1">
          <mxGeometry x="343" y="390" width="140" height="70" as="geometry" />
        </mxCell>
        <mxCell id="r-qvrWHiRKZXDaPY58lE-18" value="" style="edgeStyle=orthogonalEdgeStyle;rounded=0;orthogonalLoop=1;jettySize=auto;html=1;entryX=0.5;entryY=0;entryDx=0;entryDy=0;" edge="1" parent="1" source="r-qvrWHiRKZXDaPY58lE-13" target="r-qvrWHiRKZXDaPY58lE-23">
          <mxGeometry relative="1" as="geometry" />
        </mxCell>
        <mxCell id="r-qvrWHiRKZXDaPY58lE-13" value="รายงานสถานะการจอง (ผ่าน)" style="rounded=0;whiteSpace=wrap;html=1;" vertex="1" parent="1">
          <mxGeometry x="348" y="510" width="130" height="40" as="geometry" />
        </mxCell>
        <mxCell id="r-qvrWHiRKZXDaPY58lE-15" value="yes" style="text;html=1;align=center;verticalAlign=middle;resizable=0;points=[];autosize=1;strokeColor=none;fillColor=none;" vertex="1" parent="1">
          <mxGeometry x="410" y="458" width="40" height="30" as="geometry" />
        </mxCell>
        <mxCell id="r-qvrWHiRKZXDaPY58lE-16" value="yes" style="text;html=1;align=center;verticalAlign=middle;resizable=0;points=[];autosize=1;strokeColor=none;fillColor=none;" vertex="1" parent="1">
          <mxGeometry x="410" y="258" width="40" height="30" as="geometry" />
        </mxCell>
        <mxCell id="r-qvrWHiRKZXDaPY58lE-17" value="จบ" style="rounded=1;whiteSpace=wrap;html=1;arcSize=50;" vertex="1" parent="1">
          <mxGeometry x="369" y="720" width="88" height="42" as="geometry" />
        </mxCell>
        <mxCell id="r-qvrWHiRKZXDaPY58lE-19" value="รายงานสถานะการจอง (ไม่ผ่าน)" style="rounded=0;whiteSpace=wrap;html=1;" vertex="1" parent="1">
          <mxGeometry x="560" y="510" width="130" height="40" as="geometry" />
        </mxCell>
        <mxCell id="r-qvrWHiRKZXDaPY58lE-21" value="" style="endArrow=classic;html=1;rounded=0;exitX=1;exitY=0.5;exitDx=0;exitDy=0;entryX=0.5;entryY=0;entryDx=0;entryDy=0;" edge="1" parent="1" source="r-qvrWHiRKZXDaPY58lE-12" target="r-qvrWHiRKZXDaPY58lE-19">
          <mxGeometry width="50" height="50" relative="1" as="geometry">
            <mxPoint x="390" y="550" as="sourcePoint" />
            <mxPoint x="440" y="500" as="targetPoint" />
            <Array as="points">
              <mxPoint x="625" y="425" />
            </Array>
          </mxGeometry>
        </mxCell>
        <mxCell id="r-qvrWHiRKZXDaPY58lE-22" value="no" style="text;html=1;align=center;verticalAlign=middle;resizable=0;points=[];autosize=1;strokeColor=none;fillColor=none;" vertex="1" parent="1">
          <mxGeometry x="510" y="398" width="40" height="30" as="geometry" />
        </mxCell>
        <mxCell id="r-qvrWHiRKZXDaPY58lE-24" value="" style="edgeStyle=orthogonalEdgeStyle;rounded=0;orthogonalLoop=1;jettySize=auto;html=1;" edge="1" parent="1" source="r-qvrWHiRKZXDaPY58lE-23" target="r-qvrWHiRKZXDaPY58lE-17">
          <mxGeometry relative="1" as="geometry" />
        </mxCell>
        <mxCell id="r-qvrWHiRKZXDaPY58lE-23" value="" style="ellipse;whiteSpace=wrap;html=1;aspect=fixed;" vertex="1" parent="1">
          <mxGeometry x="393" y="620" width="40" height="40" as="geometry" />
        </mxCell>
        <mxCell id="r-qvrWHiRKZXDaPY58lE-25" value="" style="endArrow=classic;html=1;rounded=0;exitX=0.5;exitY=1;exitDx=0;exitDy=0;entryX=1;entryY=0.5;entryDx=0;entryDy=0;" edge="1" parent="1" source="r-qvrWHiRKZXDaPY58lE-19" target="r-qvrWHiRKZXDaPY58lE-23">
          <mxGeometry width="50" height="50" relative="1" as="geometry">
            <mxPoint x="390" y="650" as="sourcePoint" />
            <mxPoint x="440" y="600" as="targetPoint" />
            <Array as="points">
              <mxPoint x="625" y="640" />
            </Array>
          </mxGeometry>
        </mxCell>
        <mxCell id="r-qvrWHiRKZXDaPY58lE-26" value="" style="endArrow=classic;html=1;rounded=0;exitX=0;exitY=0.5;exitDx=0;exitDy=0;" edge="1" parent="1" source="r-qvrWHiRKZXDaPY58lE-3">
          <mxGeometry width="50" height="50" relative="1" as="geometry">
            <mxPoint x="390" y="350" as="sourcePoint" />
            <mxPoint x="393" y="640" as="targetPoint" />
            <Array as="points">
              <mxPoint x="300" y="215" />
              <mxPoint x="300" y="640" />
            </Array>
          </mxGeometry>
        </mxCell>
        <mxCell id="r-qvrWHiRKZXDaPY58lE-27" value="no" style="text;html=1;align=center;verticalAlign=middle;resizable=0;points=[];autosize=1;strokeColor=none;fillColor=none;" vertex="1" parent="1">
          <mxGeometry x="303" y="190" width="40" height="30" as="geometry" />
        </mxCell>
      </root>
    </mxGraphModel>
  </diagram>
</mxfile>
